<mxfile host="app.diagrams.net" agent="Mozilla/5.0 (Windows NT 10.0; Win64; x64) AppleWebKit/537.36 (KHTML, like Gecko) Chrome/134.0.0.0 Safari/537.36" version="26.1.1">
  <diagram name="Page-1" id="N5aIH233x7-crsCCBzwZ">
    <mxGraphModel dx="2086" dy="742" grid="1" gridSize="10" guides="1" tooltips="1" connect="1" arrows="1" fold="1" page="1" pageScale="1" pageWidth="827" pageHeight="1169" math="0" shadow="0">
      <root>
        <mxCell id="0" />
        <mxCell id="1" parent="0" />
        <mxCell id="4nzvRpyBTJfCR4IVBq6T-1" value="" style="endArrow=none;html=1;rounded=0;startFill=0;exitX=1;exitY=0.5;exitDx=0;exitDy=0;entryX=0;entryY=0.5;entryDx=0;entryDy=0;" edge="1" parent="1" source="4nzvRpyBTJfCR4IVBq6T-6" target="4nzvRpyBTJfCR4IVBq6T-12">
          <mxGeometry relative="1" as="geometry">
            <mxPoint x="120" y="570" as="sourcePoint" />
            <mxPoint x="280" y="570" as="targetPoint" />
          </mxGeometry>
        </mxCell>
        <mxCell id="4nzvRpyBTJfCR4IVBq6T-2" value="HAS&amp;gt;" style="edgeLabel;resizable=0;html=1;;align=center;verticalAlign=middle;" connectable="0" vertex="1" parent="4nzvRpyBTJfCR4IVBq6T-1">
          <mxGeometry relative="1" as="geometry">
            <mxPoint y="9" as="offset" />
          </mxGeometry>
        </mxCell>
        <mxCell id="4nzvRpyBTJfCR4IVBq6T-3" value="1..1" style="edgeLabel;resizable=0;html=1;;align=left;verticalAlign=bottom;" connectable="0" vertex="1" parent="4nzvRpyBTJfCR4IVBq6T-1">
          <mxGeometry x="-1" relative="1" as="geometry" />
        </mxCell>
        <mxCell id="4nzvRpyBTJfCR4IVBq6T-4" value="1..*" style="edgeLabel;resizable=0;html=1;;align=right;verticalAlign=bottom;" connectable="0" vertex="1" parent="4nzvRpyBTJfCR4IVBq6T-1">
          <mxGeometry x="1" relative="1" as="geometry" />
        </mxCell>
        <mxCell id="4nzvRpyBTJfCR4IVBq6T-5" value="Patient" style="swimlane;fontStyle=0;childLayout=stackLayout;horizontal=1;startSize=26;horizontalStack=0;resizeParent=1;resizeParentMax=0;resizeLast=0;collapsible=1;marginBottom=0;align=center;fontSize=14;" vertex="1" parent="1">
          <mxGeometry y="320" width="160" height="176" as="geometry" />
        </mxCell>
        <mxCell id="4nzvRpyBTJfCR4IVBq6T-6" value="PATIENT_ID{PK}" style="text;strokeColor=none;fillColor=none;spacingLeft=4;spacingRight=4;overflow=hidden;rotatable=0;points=[[0,0.5],[1,0.5]];portConstraint=eastwest;fontSize=12;whiteSpace=wrap;html=1;" vertex="1" parent="4nzvRpyBTJfCR4IVBq6T-5">
          <mxGeometry y="26" width="160" height="30" as="geometry" />
        </mxCell>
        <mxCell id="4nzvRpyBTJfCR4IVBq6T-7" value="PATIENT_FNAME" style="text;strokeColor=none;fillColor=none;spacingLeft=4;spacingRight=4;overflow=hidden;rotatable=0;points=[[0,0.5],[1,0.5]];portConstraint=eastwest;fontSize=12;whiteSpace=wrap;html=1;" vertex="1" parent="4nzvRpyBTJfCR4IVBq6T-5">
          <mxGeometry y="56" width="160" height="30" as="geometry" />
        </mxCell>
        <mxCell id="4nzvRpyBTJfCR4IVBq6T-8" value="PATIENT_LNAME" style="text;strokeColor=none;fillColor=none;spacingLeft=4;spacingRight=4;overflow=hidden;rotatable=0;points=[[0,0.5],[1,0.5]];portConstraint=eastwest;fontSize=12;whiteSpace=wrap;html=1;" vertex="1" parent="4nzvRpyBTJfCR4IVBq6T-5">
          <mxGeometry y="86" width="160" height="30" as="geometry" />
        </mxCell>
        <mxCell id="4nzvRpyBTJfCR4IVBq6T-9" value="PATIENT_AGE" style="text;strokeColor=none;fillColor=none;spacingLeft=4;spacingRight=4;overflow=hidden;rotatable=0;points=[[0,0.5],[1,0.5]];portConstraint=eastwest;fontSize=12;whiteSpace=wrap;html=1;" vertex="1" parent="4nzvRpyBTJfCR4IVBq6T-5">
          <mxGeometry y="116" width="160" height="30" as="geometry" />
        </mxCell>
        <mxCell id="4nzvRpyBTJfCR4IVBq6T-10" value="PATIENT_CELL_NUMBER" style="text;strokeColor=none;fillColor=none;spacingLeft=4;spacingRight=4;overflow=hidden;rotatable=0;points=[[0,0.5],[1,0.5]];portConstraint=eastwest;fontSize=12;whiteSpace=wrap;html=1;" vertex="1" parent="4nzvRpyBTJfCR4IVBq6T-5">
          <mxGeometry y="146" width="160" height="30" as="geometry" />
        </mxCell>
        <mxCell id="4nzvRpyBTJfCR4IVBq6T-11" value="Appointment" style="swimlane;fontStyle=0;childLayout=stackLayout;horizontal=1;startSize=26;horizontalStack=0;resizeParent=1;resizeParentMax=0;resizeLast=0;collapsible=1;marginBottom=0;align=center;fontSize=14;" vertex="1" parent="1">
          <mxGeometry x="280" y="320" width="160" height="146" as="geometry" />
        </mxCell>
        <mxCell id="4nzvRpyBTJfCR4IVBq6T-12" value="PATIENT_ID{PK}[FK1]" style="text;strokeColor=none;fillColor=none;spacingLeft=4;spacingRight=4;overflow=hidden;rotatable=0;points=[[0,0.5],[1,0.5]];portConstraint=eastwest;fontSize=12;whiteSpace=wrap;html=1;" vertex="1" parent="4nzvRpyBTJfCR4IVBq6T-11">
          <mxGeometry y="26" width="160" height="30" as="geometry" />
        </mxCell>
        <mxCell id="4nzvRpyBTJfCR4IVBq6T-13" value="DOCTOR_ID{PK}{FK2}" style="text;strokeColor=none;fillColor=none;spacingLeft=4;spacingRight=4;overflow=hidden;rotatable=0;points=[[0,0.5],[1,0.5]];portConstraint=eastwest;fontSize=12;whiteSpace=wrap;html=1;" vertex="1" parent="4nzvRpyBTJfCR4IVBq6T-11">
          <mxGeometry y="56" width="160" height="30" as="geometry" />
        </mxCell>
        <mxCell id="4nzvRpyBTJfCR4IVBq6T-14" value="APPOINTMENT_TIME" style="text;strokeColor=none;fillColor=none;spacingLeft=4;spacingRight=4;overflow=hidden;rotatable=0;points=[[0,0.5],[1,0.5]];portConstraint=eastwest;fontSize=12;whiteSpace=wrap;html=1;" vertex="1" parent="4nzvRpyBTJfCR4IVBq6T-11">
          <mxGeometry y="86" width="160" height="30" as="geometry" />
        </mxCell>
        <mxCell id="4nzvRpyBTJfCR4IVBq6T-22" value="APPOINTMENT_TYPE" style="text;strokeColor=none;fillColor=none;spacingLeft=4;spacingRight=4;overflow=hidden;rotatable=0;points=[[0,0.5],[1,0.5]];portConstraint=eastwest;fontSize=12;whiteSpace=wrap;html=1;" vertex="1" parent="4nzvRpyBTJfCR4IVBq6T-11">
          <mxGeometry y="116" width="160" height="30" as="geometry" />
        </mxCell>
        <mxCell id="4nzvRpyBTJfCR4IVBq6T-16" value="Doctor" style="swimlane;fontStyle=0;childLayout=stackLayout;horizontal=1;startSize=26;horizontalStack=0;resizeParent=1;resizeParentMax=0;resizeLast=0;collapsible=1;marginBottom=0;align=center;fontSize=14;" vertex="1" parent="1">
          <mxGeometry x="560" y="323" width="160" height="176" as="geometry" />
        </mxCell>
        <mxCell id="4nzvRpyBTJfCR4IVBq6T-17" value="DOCTOR_ID{PK}" style="text;strokeColor=none;fillColor=none;spacingLeft=4;spacingRight=4;overflow=hidden;rotatable=0;points=[[0,0.5],[1,0.5]];portConstraint=eastwest;fontSize=12;whiteSpace=wrap;html=1;" vertex="1" parent="4nzvRpyBTJfCR4IVBq6T-16">
          <mxGeometry y="26" width="160" height="30" as="geometry" />
        </mxCell>
        <mxCell id="4nzvRpyBTJfCR4IVBq6T-18" value="DOCTOR_FNAME" style="text;strokeColor=none;fillColor=none;spacingLeft=4;spacingRight=4;overflow=hidden;rotatable=0;points=[[0,0.5],[1,0.5]];portConstraint=eastwest;fontSize=12;whiteSpace=wrap;html=1;" vertex="1" parent="4nzvRpyBTJfCR4IVBq6T-16">
          <mxGeometry y="56" width="160" height="30" as="geometry" />
        </mxCell>
        <mxCell id="4nzvRpyBTJfCR4IVBq6T-19" value="DOCTOR_LNAME" style="text;strokeColor=none;fillColor=none;spacingLeft=4;spacingRight=4;overflow=hidden;rotatable=0;points=[[0,0.5],[1,0.5]];portConstraint=eastwest;fontSize=12;whiteSpace=wrap;html=1;" vertex="1" parent="4nzvRpyBTJfCR4IVBq6T-16">
          <mxGeometry y="86" width="160" height="30" as="geometry" />
        </mxCell>
        <mxCell id="4nzvRpyBTJfCR4IVBq6T-20" value="DOCTOR_ROOM" style="text;strokeColor=none;fillColor=none;spacingLeft=4;spacingRight=4;overflow=hidden;rotatable=0;points=[[0,0.5],[1,0.5]];portConstraint=eastwest;fontSize=12;whiteSpace=wrap;html=1;" vertex="1" parent="4nzvRpyBTJfCR4IVBq6T-16">
          <mxGeometry y="116" width="160" height="30" as="geometry" />
        </mxCell>
        <mxCell id="4nzvRpyBTJfCR4IVBq6T-21" style="text;strokeColor=none;fillColor=none;spacingLeft=4;spacingRight=4;overflow=hidden;rotatable=0;points=[[0,0.5],[1,0.5]];portConstraint=eastwest;fontSize=12;whiteSpace=wrap;html=1;" vertex="1" parent="4nzvRpyBTJfCR4IVBq6T-16">
          <mxGeometry y="146" width="160" height="30" as="geometry" />
        </mxCell>
        <mxCell id="4nzvRpyBTJfCR4IVBq6T-23" value="" style="endArrow=none;html=1;rounded=0;startFill=0;exitX=0;exitY=0.5;exitDx=0;exitDy=0;entryX=1;entryY=0.5;entryDx=0;entryDy=0;" edge="1" parent="1" source="4nzvRpyBTJfCR4IVBq6T-17" target="4nzvRpyBTJfCR4IVBq6T-12">
          <mxGeometry relative="1" as="geometry">
            <mxPoint x="170" y="371" as="sourcePoint" />
            <mxPoint x="290" y="371" as="targetPoint" />
          </mxGeometry>
        </mxCell>
        <mxCell id="4nzvRpyBTJfCR4IVBq6T-24" value="&amp;lt;ACCEPTS" style="edgeLabel;resizable=0;html=1;;align=center;verticalAlign=middle;" connectable="0" vertex="1" parent="4nzvRpyBTJfCR4IVBq6T-23">
          <mxGeometry relative="1" as="geometry">
            <mxPoint y="9" as="offset" />
          </mxGeometry>
        </mxCell>
        <mxCell id="4nzvRpyBTJfCR4IVBq6T-25" value="1..1" style="edgeLabel;resizable=0;html=1;;align=left;verticalAlign=bottom;" connectable="0" vertex="1" parent="4nzvRpyBTJfCR4IVBq6T-23">
          <mxGeometry x="-1" relative="1" as="geometry">
            <mxPoint x="-20" as="offset" />
          </mxGeometry>
        </mxCell>
        <mxCell id="4nzvRpyBTJfCR4IVBq6T-26" value="1..*" style="edgeLabel;resizable=0;html=1;;align=right;verticalAlign=bottom;" connectable="0" vertex="1" parent="4nzvRpyBTJfCR4IVBq6T-23">
          <mxGeometry x="1" relative="1" as="geometry">
            <mxPoint x="20" as="offset" />
          </mxGeometry>
        </mxCell>
        <mxCell id="4nzvRpyBTJfCR4IVBq6T-36" value="" style="endArrow=none;html=1;rounded=0;startFill=0;entryX=0.497;entryY=0.954;entryDx=0;entryDy=0;entryPerimeter=0;exitX=0.5;exitY=0;exitDx=0;exitDy=0;" edge="1" parent="1" source="4nzvRpyBTJfCR4IVBq6T-41" target="4nzvRpyBTJfCR4IVBq6T-22">
          <mxGeometry relative="1" as="geometry">
            <mxPoint x="360" y="590" as="sourcePoint" />
            <mxPoint x="360" y="470" as="targetPoint" />
            <Array as="points">
              <mxPoint x="360" y="510" />
            </Array>
          </mxGeometry>
        </mxCell>
        <mxCell id="4nzvRpyBTJfCR4IVBq6T-37" value="YIELDS&amp;gt;" style="edgeLabel;resizable=0;html=1;;align=center;verticalAlign=middle;" connectable="0" vertex="1" parent="4nzvRpyBTJfCR4IVBq6T-36">
          <mxGeometry relative="1" as="geometry">
            <mxPoint y="-5" as="offset" />
          </mxGeometry>
        </mxCell>
        <mxCell id="4nzvRpyBTJfCR4IVBq6T-38" value="0..1" style="edgeLabel;resizable=0;html=1;;align=left;verticalAlign=bottom;" connectable="0" vertex="1" parent="4nzvRpyBTJfCR4IVBq6T-36">
          <mxGeometry x="-1" relative="1" as="geometry">
            <mxPoint as="offset" />
          </mxGeometry>
        </mxCell>
        <mxCell id="4nzvRpyBTJfCR4IVBq6T-39" value="1..1" style="edgeLabel;resizable=0;html=1;;align=right;verticalAlign=bottom;" connectable="0" vertex="1" parent="4nzvRpyBTJfCR4IVBq6T-36">
          <mxGeometry x="1" relative="1" as="geometry">
            <mxPoint x="20" y="25" as="offset" />
          </mxGeometry>
        </mxCell>
        <mxCell id="4nzvRpyBTJfCR4IVBq6T-41" value="Visit" style="swimlane;fontStyle=0;childLayout=stackLayout;horizontal=1;startSize=26;horizontalStack=0;resizeParent=1;resizeParentMax=0;resizeLast=0;collapsible=1;marginBottom=0;align=center;fontSize=14;" vertex="1" parent="1">
          <mxGeometry x="280" y="600" width="160" height="176" as="geometry" />
        </mxCell>
        <mxCell id="4nzvRpyBTJfCR4IVBq6T-42" value="VISIT_ID{PK}" style="text;strokeColor=none;fillColor=none;spacingLeft=4;spacingRight=4;overflow=hidden;rotatable=0;points=[[0,0.5],[1,0.5]];portConstraint=eastwest;fontSize=12;whiteSpace=wrap;html=1;" vertex="1" parent="4nzvRpyBTJfCR4IVBq6T-41">
          <mxGeometry y="26" width="160" height="30" as="geometry" />
        </mxCell>
        <mxCell id="4nzvRpyBTJfCR4IVBq6T-43" value="PATIENT_ID{FK1}" style="text;strokeColor=none;fillColor=none;spacingLeft=4;spacingRight=4;overflow=hidden;rotatable=0;points=[[0,0.5],[1,0.5]];portConstraint=eastwest;fontSize=12;whiteSpace=wrap;html=1;" vertex="1" parent="4nzvRpyBTJfCR4IVBq6T-41">
          <mxGeometry y="56" width="160" height="30" as="geometry" />
        </mxCell>
        <mxCell id="4nzvRpyBTJfCR4IVBq6T-44" value="DOCTOR_ID{FK2}" style="text;strokeColor=none;fillColor=none;spacingLeft=4;spacingRight=4;overflow=hidden;rotatable=0;points=[[0,0.5],[1,0.5]];portConstraint=eastwest;fontSize=12;whiteSpace=wrap;html=1;" vertex="1" parent="4nzvRpyBTJfCR4IVBq6T-41">
          <mxGeometry y="86" width="160" height="30" as="geometry" />
        </mxCell>
        <mxCell id="4nzvRpyBTJfCR4IVBq6T-49" value="DIAGNOSIS" style="text;strokeColor=none;fillColor=none;spacingLeft=4;spacingRight=4;overflow=hidden;rotatable=0;points=[[0,0.5],[1,0.5]];portConstraint=eastwest;fontSize=12;whiteSpace=wrap;html=1;" vertex="1" parent="4nzvRpyBTJfCR4IVBq6T-41">
          <mxGeometry y="116" width="160" height="30" as="geometry" />
        </mxCell>
        <mxCell id="4nzvRpyBTJfCR4IVBq6T-87" value="TREATMENT" style="text;strokeColor=none;fillColor=none;spacingLeft=4;spacingRight=4;overflow=hidden;rotatable=0;points=[[0,0.5],[1,0.5]];portConstraint=eastwest;fontSize=12;whiteSpace=wrap;html=1;" vertex="1" parent="4nzvRpyBTJfCR4IVBq6T-41">
          <mxGeometry y="146" width="160" height="30" as="geometry" />
        </mxCell>
        <mxCell id="4nzvRpyBTJfCR4IVBq6T-45" value="Records" style="swimlane;fontStyle=0;childLayout=stackLayout;horizontal=1;startSize=26;horizontalStack=0;resizeParent=1;resizeParentMax=0;resizeLast=0;collapsible=1;marginBottom=0;align=center;fontSize=14;" vertex="1" parent="1">
          <mxGeometry y="600" width="160" height="116" as="geometry" />
        </mxCell>
        <mxCell id="4nzvRpyBTJfCR4IVBq6T-46" value="PATIENT_ID{PK}{FK1}" style="text;strokeColor=none;fillColor=none;spacingLeft=4;spacingRight=4;overflow=hidden;rotatable=0;points=[[0,0.5],[1,0.5]];portConstraint=eastwest;fontSize=12;whiteSpace=wrap;html=1;" vertex="1" parent="4nzvRpyBTJfCR4IVBq6T-45">
          <mxGeometry y="26" width="160" height="30" as="geometry" />
        </mxCell>
        <mxCell id="4nzvRpyBTJfCR4IVBq6T-47" value="VISIT_ID{PK}{FK2}" style="text;strokeColor=none;fillColor=none;spacingLeft=4;spacingRight=4;overflow=hidden;rotatable=0;points=[[0,0.5],[1,0.5]];portConstraint=eastwest;fontSize=12;whiteSpace=wrap;html=1;" vertex="1" parent="4nzvRpyBTJfCR4IVBq6T-45">
          <mxGeometry y="56" width="160" height="30" as="geometry" />
        </mxCell>
        <mxCell id="4nzvRpyBTJfCR4IVBq6T-48" value="&amp;nbsp;" style="text;strokeColor=none;fillColor=none;spacingLeft=4;spacingRight=4;overflow=hidden;rotatable=0;points=[[0,0.5],[1,0.5]];portConstraint=eastwest;fontSize=12;whiteSpace=wrap;html=1;" vertex="1" parent="4nzvRpyBTJfCR4IVBq6T-45">
          <mxGeometry y="86" width="160" height="30" as="geometry" />
        </mxCell>
        <mxCell id="4nzvRpyBTJfCR4IVBq6T-63" value="" style="endArrow=none;html=1;rounded=0;startFill=0;exitX=0.495;exitY=0.978;exitDx=0;exitDy=0;entryX=0.5;entryY=0;entryDx=0;entryDy=0;exitPerimeter=0;" edge="1" parent="1" source="4nzvRpyBTJfCR4IVBq6T-10" target="4nzvRpyBTJfCR4IVBq6T-45">
          <mxGeometry relative="1" as="geometry">
            <mxPoint x="170" y="371" as="sourcePoint" />
            <mxPoint x="290" y="371" as="targetPoint" />
          </mxGeometry>
        </mxCell>
        <mxCell id="4nzvRpyBTJfCR4IVBq6T-64" value="HAS&amp;gt;" style="edgeLabel;resizable=0;html=1;;align=center;verticalAlign=middle;" connectable="0" vertex="1" parent="4nzvRpyBTJfCR4IVBq6T-63">
          <mxGeometry relative="1" as="geometry">
            <mxPoint y="9" as="offset" />
          </mxGeometry>
        </mxCell>
        <mxCell id="4nzvRpyBTJfCR4IVBq6T-65" value="1..1" style="edgeLabel;resizable=0;html=1;;align=left;verticalAlign=bottom;" connectable="0" vertex="1" parent="4nzvRpyBTJfCR4IVBq6T-63">
          <mxGeometry x="-1" relative="1" as="geometry">
            <mxPoint y="15" as="offset" />
          </mxGeometry>
        </mxCell>
        <mxCell id="4nzvRpyBTJfCR4IVBq6T-66" value="1..*" style="edgeLabel;resizable=0;html=1;;align=right;verticalAlign=bottom;" connectable="0" vertex="1" parent="4nzvRpyBTJfCR4IVBq6T-63">
          <mxGeometry x="1" relative="1" as="geometry">
            <mxPoint x="20" as="offset" />
          </mxGeometry>
        </mxCell>
        <mxCell id="4nzvRpyBTJfCR4IVBq6T-67" value="" style="endArrow=none;html=1;rounded=0;startFill=0;exitX=0;exitY=0.5;exitDx=0;exitDy=0;entryX=1;entryY=0.5;entryDx=0;entryDy=0;" edge="1" parent="1" source="4nzvRpyBTJfCR4IVBq6T-42" target="4nzvRpyBTJfCR4IVBq6T-46">
          <mxGeometry relative="1" as="geometry">
            <mxPoint x="89" y="505" as="sourcePoint" />
            <mxPoint x="90" y="610" as="targetPoint" />
          </mxGeometry>
        </mxCell>
        <mxCell id="4nzvRpyBTJfCR4IVBq6T-68" value="&amp;lt;CREATES" style="edgeLabel;resizable=0;html=1;;align=center;verticalAlign=middle;" connectable="0" vertex="1" parent="4nzvRpyBTJfCR4IVBq6T-67">
          <mxGeometry relative="1" as="geometry">
            <mxPoint y="9" as="offset" />
          </mxGeometry>
        </mxCell>
        <mxCell id="4nzvRpyBTJfCR4IVBq6T-69" value="1..1" style="edgeLabel;resizable=0;html=1;;align=left;verticalAlign=bottom;" connectable="0" vertex="1" parent="4nzvRpyBTJfCR4IVBq6T-67">
          <mxGeometry x="-1" relative="1" as="geometry">
            <mxPoint x="-20" y="-1" as="offset" />
          </mxGeometry>
        </mxCell>
        <mxCell id="4nzvRpyBTJfCR4IVBq6T-70" value="1..1" style="edgeLabel;resizable=0;html=1;;align=right;verticalAlign=bottom;" connectable="0" vertex="1" parent="4nzvRpyBTJfCR4IVBq6T-67">
          <mxGeometry x="1" relative="1" as="geometry">
            <mxPoint x="20" as="offset" />
          </mxGeometry>
        </mxCell>
        <mxCell id="4nzvRpyBTJfCR4IVBq6T-71" value="Bill" style="swimlane;fontStyle=0;childLayout=stackLayout;horizontal=1;startSize=26;horizontalStack=0;resizeParent=1;resizeParentMax=0;resizeLast=0;collapsible=1;marginBottom=0;align=center;fontSize=14;" vertex="1" parent="1">
          <mxGeometry x="280" y="840" width="160" height="116" as="geometry" />
        </mxCell>
        <mxCell id="4nzvRpyBTJfCR4IVBq6T-72" value="BILL_ID{PK}" style="text;strokeColor=none;fillColor=none;spacingLeft=4;spacingRight=4;overflow=hidden;rotatable=0;points=[[0,0.5],[1,0.5]];portConstraint=eastwest;fontSize=12;whiteSpace=wrap;html=1;" vertex="1" parent="4nzvRpyBTJfCR4IVBq6T-71">
          <mxGeometry y="26" width="160" height="30" as="geometry" />
        </mxCell>
        <mxCell id="4nzvRpyBTJfCR4IVBq6T-73" value="VISIT_ID{FK1}" style="text;strokeColor=none;fillColor=none;spacingLeft=4;spacingRight=4;overflow=hidden;rotatable=0;points=[[0,0.5],[1,0.5]];portConstraint=eastwest;fontSize=12;whiteSpace=wrap;html=1;" vertex="1" parent="4nzvRpyBTJfCR4IVBq6T-71">
          <mxGeometry y="56" width="160" height="30" as="geometry" />
        </mxCell>
        <mxCell id="4nzvRpyBTJfCR4IVBq6T-74" value="DOCTOR_ID{FK2}" style="text;strokeColor=none;fillColor=none;spacingLeft=4;spacingRight=4;overflow=hidden;rotatable=0;points=[[0,0.5],[1,0.5]];portConstraint=eastwest;fontSize=12;whiteSpace=wrap;html=1;" vertex="1" parent="4nzvRpyBTJfCR4IVBq6T-71">
          <mxGeometry y="86" width="160" height="30" as="geometry" />
        </mxCell>
        <mxCell id="4nzvRpyBTJfCR4IVBq6T-75" value="Payment" style="swimlane;fontStyle=0;childLayout=stackLayout;horizontal=1;startSize=26;horizontalStack=0;resizeParent=1;resizeParentMax=0;resizeLast=0;collapsible=1;marginBottom=0;align=center;fontSize=14;" vertex="1" parent="1">
          <mxGeometry y="1040" width="160" height="116" as="geometry" />
        </mxCell>
        <mxCell id="4nzvRpyBTJfCR4IVBq6T-76" value="PAYMENT_ID{PK}" style="text;strokeColor=none;fillColor=none;spacingLeft=4;spacingRight=4;overflow=hidden;rotatable=0;points=[[0,0.5],[1,0.5]];portConstraint=eastwest;fontSize=12;whiteSpace=wrap;html=1;" vertex="1" parent="4nzvRpyBTJfCR4IVBq6T-75">
          <mxGeometry y="26" width="160" height="30" as="geometry" />
        </mxCell>
        <mxCell id="4nzvRpyBTJfCR4IVBq6T-77" value="PAYMENT_DESC" style="text;strokeColor=none;fillColor=none;spacingLeft=4;spacingRight=4;overflow=hidden;rotatable=0;points=[[0,0.5],[1,0.5]];portConstraint=eastwest;fontSize=12;whiteSpace=wrap;html=1;" vertex="1" parent="4nzvRpyBTJfCR4IVBq6T-75">
          <mxGeometry y="56" width="160" height="30" as="geometry" />
        </mxCell>
        <mxCell id="4nzvRpyBTJfCR4IVBq6T-78" value="DEDUCTIBLE" style="text;strokeColor=none;fillColor=none;spacingLeft=4;spacingRight=4;overflow=hidden;rotatable=0;points=[[0,0.5],[1,0.5]];portConstraint=eastwest;fontSize=12;whiteSpace=wrap;html=1;" vertex="1" parent="4nzvRpyBTJfCR4IVBq6T-75">
          <mxGeometry y="86" width="160" height="30" as="geometry" />
        </mxCell>
        <mxCell id="4nzvRpyBTJfCR4IVBq6T-83" value="Claim" style="swimlane;fontStyle=0;childLayout=stackLayout;horizontal=1;startSize=26;horizontalStack=0;resizeParent=1;resizeParentMax=0;resizeLast=0;collapsible=1;marginBottom=0;align=center;fontSize=14;" vertex="1" parent="1">
          <mxGeometry y="840" width="160" height="86" as="geometry" />
        </mxCell>
        <mxCell id="4nzvRpyBTJfCR4IVBq6T-84" value="BILL_ID{PK}{FK1}" style="text;strokeColor=none;fillColor=none;spacingLeft=4;spacingRight=4;overflow=hidden;rotatable=0;points=[[0,0.5],[1,0.5]];portConstraint=eastwest;fontSize=12;whiteSpace=wrap;html=1;" vertex="1" parent="4nzvRpyBTJfCR4IVBq6T-83">
          <mxGeometry y="26" width="160" height="30" as="geometry" />
        </mxCell>
        <mxCell id="4nzvRpyBTJfCR4IVBq6T-85" value="INS_COMP_ID{PK}{FK2}" style="text;strokeColor=none;fillColor=none;spacingLeft=4;spacingRight=4;overflow=hidden;rotatable=0;points=[[0,0.5],[1,0.5]];portConstraint=eastwest;fontSize=12;whiteSpace=wrap;html=1;" vertex="1" parent="4nzvRpyBTJfCR4IVBq6T-83">
          <mxGeometry y="56" width="160" height="30" as="geometry" />
        </mxCell>
        <mxCell id="4nzvRpyBTJfCR4IVBq6T-89" value="" style="endArrow=none;html=1;rounded=0;startFill=0;exitX=0.493;exitY=1.028;exitDx=0;exitDy=0;entryX=0.5;entryY=0;entryDx=0;entryDy=0;exitPerimeter=0;" edge="1" parent="1" source="4nzvRpyBTJfCR4IVBq6T-87" target="4nzvRpyBTJfCR4IVBq6T-71">
          <mxGeometry relative="1" as="geometry">
            <mxPoint x="290" y="651" as="sourcePoint" />
            <mxPoint x="170" y="651" as="targetPoint" />
          </mxGeometry>
        </mxCell>
        <mxCell id="4nzvRpyBTJfCR4IVBq6T-90" value="CREATES&amp;gt;" style="edgeLabel;resizable=0;html=1;;align=center;verticalAlign=middle;" connectable="0" vertex="1" parent="4nzvRpyBTJfCR4IVBq6T-89">
          <mxGeometry relative="1" as="geometry">
            <mxPoint y="1" as="offset" />
          </mxGeometry>
        </mxCell>
        <mxCell id="4nzvRpyBTJfCR4IVBq6T-91" value="1..1" style="edgeLabel;resizable=0;html=1;;align=left;verticalAlign=bottom;" connectable="0" vertex="1" parent="4nzvRpyBTJfCR4IVBq6T-89">
          <mxGeometry x="-1" relative="1" as="geometry">
            <mxPoint x="1" y="13" as="offset" />
          </mxGeometry>
        </mxCell>
        <mxCell id="4nzvRpyBTJfCR4IVBq6T-92" value="1..1" style="edgeLabel;resizable=0;html=1;;align=right;verticalAlign=bottom;" connectable="0" vertex="1" parent="4nzvRpyBTJfCR4IVBq6T-89">
          <mxGeometry x="1" relative="1" as="geometry">
            <mxPoint x="20" as="offset" />
          </mxGeometry>
        </mxCell>
        <mxCell id="4nzvRpyBTJfCR4IVBq6T-93" value="" style="endArrow=none;html=1;rounded=0;startFill=0;entryX=0.498;entryY=1.066;entryDx=0;entryDy=0;entryPerimeter=0;exitX=1;exitY=0.5;exitDx=0;exitDy=0;" edge="1" parent="1" source="4nzvRpyBTJfCR4IVBq6T-72" target="4nzvRpyBTJfCR4IVBq6T-21">
          <mxGeometry relative="1" as="geometry">
            <mxPoint x="530" y="862.6018655711207" as="sourcePoint" />
            <mxPoint x="370" y="475" as="targetPoint" />
            <Array as="points">
              <mxPoint x="640" y="881" />
            </Array>
          </mxGeometry>
        </mxCell>
        <mxCell id="4nzvRpyBTJfCR4IVBq6T-94" value="&amp;lt;ASSOCIATES" style="edgeLabel;resizable=0;html=1;;align=center;verticalAlign=middle;" connectable="0" vertex="1" parent="4nzvRpyBTJfCR4IVBq6T-93">
          <mxGeometry relative="1" as="geometry">
            <mxPoint x="-90" y="99" as="offset" />
          </mxGeometry>
        </mxCell>
        <mxCell id="4nzvRpyBTJfCR4IVBq6T-95" value="1..*" style="edgeLabel;resizable=0;html=1;;align=left;verticalAlign=bottom;" connectable="0" vertex="1" parent="4nzvRpyBTJfCR4IVBq6T-93">
          <mxGeometry x="-1" relative="1" as="geometry">
            <mxPoint as="offset" />
          </mxGeometry>
        </mxCell>
        <mxCell id="4nzvRpyBTJfCR4IVBq6T-96" value="1..1" style="edgeLabel;resizable=0;html=1;;align=right;verticalAlign=bottom;" connectable="0" vertex="1" parent="4nzvRpyBTJfCR4IVBq6T-93">
          <mxGeometry x="1" relative="1" as="geometry">
            <mxPoint x="20" y="19" as="offset" />
          </mxGeometry>
        </mxCell>
        <mxCell id="4nzvRpyBTJfCR4IVBq6T-97" value="Instalments" style="swimlane;fontStyle=0;childLayout=stackLayout;horizontal=1;startSize=26;horizontalStack=0;resizeParent=1;resizeParentMax=0;resizeLast=0;collapsible=1;marginBottom=0;align=center;fontSize=14;" vertex="1" parent="1">
          <mxGeometry x="280" y="1040" width="160" height="116" as="geometry" />
        </mxCell>
        <mxCell id="4nzvRpyBTJfCR4IVBq6T-98" value="BILL_ID{PK}{FK1}" style="text;strokeColor=none;fillColor=none;spacingLeft=4;spacingRight=4;overflow=hidden;rotatable=0;points=[[0,0.5],[1,0.5]];portConstraint=eastwest;fontSize=12;whiteSpace=wrap;html=1;" vertex="1" parent="4nzvRpyBTJfCR4IVBq6T-97">
          <mxGeometry y="26" width="160" height="30" as="geometry" />
        </mxCell>
        <mxCell id="4nzvRpyBTJfCR4IVBq6T-99" value="PAYMENT_ID{PK}{FK2}" style="text;strokeColor=none;fillColor=none;spacingLeft=4;spacingRight=4;overflow=hidden;rotatable=0;points=[[0,0.5],[1,0.5]];portConstraint=eastwest;fontSize=12;whiteSpace=wrap;html=1;" vertex="1" parent="4nzvRpyBTJfCR4IVBq6T-97">
          <mxGeometry y="56" width="160" height="30" as="geometry" />
        </mxCell>
        <mxCell id="4nzvRpyBTJfCR4IVBq6T-100" value="&amp;nbsp;" style="text;strokeColor=none;fillColor=none;spacingLeft=4;spacingRight=4;overflow=hidden;rotatable=0;points=[[0,0.5],[1,0.5]];portConstraint=eastwest;fontSize=12;whiteSpace=wrap;html=1;" vertex="1" parent="4nzvRpyBTJfCR4IVBq6T-97">
          <mxGeometry y="86" width="160" height="30" as="geometry" />
        </mxCell>
        <mxCell id="4nzvRpyBTJfCR4IVBq6T-101" value="" style="endArrow=none;html=1;rounded=0;startFill=0;exitX=1;exitY=0.5;exitDx=0;exitDy=0;entryX=0;entryY=0.5;entryDx=0;entryDy=0;" edge="1" parent="1" source="4nzvRpyBTJfCR4IVBq6T-76" target="4nzvRpyBTJfCR4IVBq6T-98">
          <mxGeometry relative="1" as="geometry">
            <mxPoint x="369" y="787" as="sourcePoint" />
            <mxPoint x="370" y="850" as="targetPoint" />
          </mxGeometry>
        </mxCell>
        <mxCell id="4nzvRpyBTJfCR4IVBq6T-102" value="PAYS&amp;gt;" style="edgeLabel;resizable=0;html=1;;align=center;verticalAlign=middle;" connectable="0" vertex="1" parent="4nzvRpyBTJfCR4IVBq6T-101">
          <mxGeometry relative="1" as="geometry">
            <mxPoint y="9" as="offset" />
          </mxGeometry>
        </mxCell>
        <mxCell id="4nzvRpyBTJfCR4IVBq6T-103" value="1..1" style="edgeLabel;resizable=0;html=1;;align=left;verticalAlign=bottom;" connectable="0" vertex="1" parent="4nzvRpyBTJfCR4IVBq6T-101">
          <mxGeometry x="-1" relative="1" as="geometry">
            <mxPoint x="1" y="-1" as="offset" />
          </mxGeometry>
        </mxCell>
        <mxCell id="4nzvRpyBTJfCR4IVBq6T-104" value="1..*" style="edgeLabel;resizable=0;html=1;;align=right;verticalAlign=bottom;" connectable="0" vertex="1" parent="4nzvRpyBTJfCR4IVBq6T-101">
          <mxGeometry x="1" relative="1" as="geometry">
            <mxPoint y="-1" as="offset" />
          </mxGeometry>
        </mxCell>
        <mxCell id="4nzvRpyBTJfCR4IVBq6T-105" value="" style="endArrow=none;html=1;rounded=0;startFill=0;exitX=0.501;exitY=1.026;exitDx=0;exitDy=0;entryX=0.5;entryY=0;entryDx=0;entryDy=0;exitPerimeter=0;" edge="1" parent="1" source="4nzvRpyBTJfCR4IVBq6T-74" target="4nzvRpyBTJfCR4IVBq6T-97">
          <mxGeometry relative="1" as="geometry">
            <mxPoint x="170" y="1091" as="sourcePoint" />
            <mxPoint x="290" y="1091" as="targetPoint" />
          </mxGeometry>
        </mxCell>
        <mxCell id="4nzvRpyBTJfCR4IVBq6T-106" value="HAS&amp;gt;" style="edgeLabel;resizable=0;html=1;;align=center;verticalAlign=middle;" connectable="0" vertex="1" parent="4nzvRpyBTJfCR4IVBq6T-105">
          <mxGeometry relative="1" as="geometry">
            <mxPoint y="1" as="offset" />
          </mxGeometry>
        </mxCell>
        <mxCell id="4nzvRpyBTJfCR4IVBq6T-107" value="1..1" style="edgeLabel;resizable=0;html=1;;align=left;verticalAlign=bottom;" connectable="0" vertex="1" parent="4nzvRpyBTJfCR4IVBq6T-105">
          <mxGeometry x="-1" relative="1" as="geometry">
            <mxPoint x="1" y="23" as="offset" />
          </mxGeometry>
        </mxCell>
        <mxCell id="4nzvRpyBTJfCR4IVBq6T-108" value="1..*" style="edgeLabel;resizable=0;html=1;;align=right;verticalAlign=bottom;" connectable="0" vertex="1" parent="4nzvRpyBTJfCR4IVBq6T-105">
          <mxGeometry x="1" relative="1" as="geometry">
            <mxPoint x="20" as="offset" />
          </mxGeometry>
        </mxCell>
        <mxCell id="4nzvRpyBTJfCR4IVBq6T-109" value="" style="endArrow=none;html=1;rounded=0;startFill=0;exitX=0;exitY=0.5;exitDx=0;exitDy=0;entryX=1;entryY=0.5;entryDx=0;entryDy=0;" edge="1" parent="1" source="4nzvRpyBTJfCR4IVBq6T-72" target="4nzvRpyBTJfCR4IVBq6T-84">
          <mxGeometry relative="1" as="geometry">
            <mxPoint x="370" y="967" as="sourcePoint" />
            <mxPoint x="370" y="1050" as="targetPoint" />
          </mxGeometry>
        </mxCell>
        <mxCell id="4nzvRpyBTJfCR4IVBq6T-110" value="&amp;lt;BASIS" style="edgeLabel;resizable=0;html=1;;align=center;verticalAlign=middle;" connectable="0" vertex="1" parent="4nzvRpyBTJfCR4IVBq6T-109">
          <mxGeometry relative="1" as="geometry">
            <mxPoint y="1" as="offset" />
          </mxGeometry>
        </mxCell>
        <mxCell id="4nzvRpyBTJfCR4IVBq6T-111" value="1..1" style="edgeLabel;resizable=0;html=1;;align=left;verticalAlign=bottom;" connectable="0" vertex="1" parent="4nzvRpyBTJfCR4IVBq6T-109">
          <mxGeometry x="-1" relative="1" as="geometry">
            <mxPoint x="-20" y="-1" as="offset" />
          </mxGeometry>
        </mxCell>
        <mxCell id="4nzvRpyBTJfCR4IVBq6T-112" value="0..1" style="edgeLabel;resizable=0;html=1;;align=right;verticalAlign=bottom;" connectable="0" vertex="1" parent="4nzvRpyBTJfCR4IVBq6T-109">
          <mxGeometry x="1" relative="1" as="geometry">
            <mxPoint x="20" as="offset" />
          </mxGeometry>
        </mxCell>
        <mxCell id="4nzvRpyBTJfCR4IVBq6T-113" value="Insurance Company" style="swimlane;fontStyle=0;childLayout=stackLayout;horizontal=1;startSize=26;horizontalStack=0;resizeParent=1;resizeParentMax=0;resizeLast=0;collapsible=1;marginBottom=0;align=center;fontSize=14;" vertex="1" parent="1">
          <mxGeometry x="-280" y="840" width="160" height="116" as="geometry" />
        </mxCell>
        <mxCell id="4nzvRpyBTJfCR4IVBq6T-114" value="INS_COMP_ID{PK}" style="text;strokeColor=none;fillColor=none;spacingLeft=4;spacingRight=4;overflow=hidden;rotatable=0;points=[[0,0.5],[1,0.5]];portConstraint=eastwest;fontSize=12;whiteSpace=wrap;html=1;" vertex="1" parent="4nzvRpyBTJfCR4IVBq6T-113">
          <mxGeometry y="26" width="160" height="30" as="geometry" />
        </mxCell>
        <mxCell id="4nzvRpyBTJfCR4IVBq6T-115" value="INS_COMP_NAME" style="text;strokeColor=none;fillColor=none;spacingLeft=4;spacingRight=4;overflow=hidden;rotatable=0;points=[[0,0.5],[1,0.5]];portConstraint=eastwest;fontSize=12;whiteSpace=wrap;html=1;" vertex="1" parent="4nzvRpyBTJfCR4IVBq6T-113">
          <mxGeometry y="56" width="160" height="30" as="geometry" />
        </mxCell>
        <mxCell id="4nzvRpyBTJfCR4IVBq6T-116" value="&amp;nbsp;" style="text;strokeColor=none;fillColor=none;spacingLeft=4;spacingRight=4;overflow=hidden;rotatable=0;points=[[0,0.5],[1,0.5]];portConstraint=eastwest;fontSize=12;whiteSpace=wrap;html=1;" vertex="1" parent="4nzvRpyBTJfCR4IVBq6T-113">
          <mxGeometry y="86" width="160" height="30" as="geometry" />
        </mxCell>
        <mxCell id="4nzvRpyBTJfCR4IVBq6T-117" value="" style="endArrow=none;html=1;rounded=0;startFill=0;exitX=0;exitY=0.5;exitDx=0;exitDy=0;entryX=1;entryY=0.5;entryDx=0;entryDy=0;" edge="1" parent="1" source="4nzvRpyBTJfCR4IVBq6T-84" target="4nzvRpyBTJfCR4IVBq6T-114">
          <mxGeometry relative="1" as="geometry">
            <mxPoint x="290" y="891" as="sourcePoint" />
            <mxPoint x="170" y="891" as="targetPoint" />
          </mxGeometry>
        </mxCell>
        <mxCell id="4nzvRpyBTJfCR4IVBq6T-118" value="&amp;lt;SUBMITTED" style="edgeLabel;resizable=0;html=1;;align=center;verticalAlign=middle;" connectable="0" vertex="1" parent="4nzvRpyBTJfCR4IVBq6T-117">
          <mxGeometry relative="1" as="geometry">
            <mxPoint y="9" as="offset" />
          </mxGeometry>
        </mxCell>
        <mxCell id="4nzvRpyBTJfCR4IVBq6T-119" value="1..*" style="edgeLabel;resizable=0;html=1;;align=left;verticalAlign=bottom;" connectable="0" vertex="1" parent="4nzvRpyBTJfCR4IVBq6T-117">
          <mxGeometry x="-1" relative="1" as="geometry">
            <mxPoint x="-20" y="-1" as="offset" />
          </mxGeometry>
        </mxCell>
        <mxCell id="4nzvRpyBTJfCR4IVBq6T-120" value="1..1" style="edgeLabel;resizable=0;html=1;;align=right;verticalAlign=bottom;" connectable="0" vertex="1" parent="4nzvRpyBTJfCR4IVBq6T-117">
          <mxGeometry x="1" relative="1" as="geometry">
            <mxPoint x="20" as="offset" />
          </mxGeometry>
        </mxCell>
        <mxCell id="4nzvRpyBTJfCR4IVBq6T-121" value="" style="endArrow=none;html=1;rounded=0;startFill=0;exitX=0.491;exitY=1.002;exitDx=0;exitDy=0;entryX=0.5;entryY=0;entryDx=0;entryDy=0;exitPerimeter=0;" edge="1" parent="1" source="4nzvRpyBTJfCR4IVBq6T-85" target="4nzvRpyBTJfCR4IVBq6T-75">
          <mxGeometry relative="1" as="geometry">
            <mxPoint x="10" y="891" as="sourcePoint" />
            <mxPoint x="-110" y="891" as="targetPoint" />
          </mxGeometry>
        </mxCell>
        <mxCell id="4nzvRpyBTJfCR4IVBq6T-122" value="SUBMITTED&amp;gt;" style="edgeLabel;resizable=0;html=1;;align=center;verticalAlign=middle;" connectable="0" vertex="1" parent="4nzvRpyBTJfCR4IVBq6T-121">
          <mxGeometry relative="1" as="geometry">
            <mxPoint y="9" as="offset" />
          </mxGeometry>
        </mxCell>
        <mxCell id="4nzvRpyBTJfCR4IVBq6T-123" value="0..1" style="edgeLabel;resizable=0;html=1;;align=left;verticalAlign=bottom;" connectable="0" vertex="1" parent="4nzvRpyBTJfCR4IVBq6T-121">
          <mxGeometry x="-1" relative="1" as="geometry">
            <mxPoint x="1" y="14" as="offset" />
          </mxGeometry>
        </mxCell>
        <mxCell id="4nzvRpyBTJfCR4IVBq6T-124" value="1..1" style="edgeLabel;resizable=0;html=1;;align=right;verticalAlign=bottom;" connectable="0" vertex="1" parent="4nzvRpyBTJfCR4IVBq6T-121">
          <mxGeometry x="1" relative="1" as="geometry">
            <mxPoint x="20" as="offset" />
          </mxGeometry>
        </mxCell>
      </root>
    </mxGraphModel>
  </diagram>
</mxfile>
